<svg xmlns="http://www.w3.org/2000/svg" width="1600" height="900" viewBox="0 0 1600 900" preserveAspectRatio="xMidYMid slice">
  <defs>
    <linearGradient id="sky" x1="0" y1="0" x2="0" y2="1">
      <stop offset="0%" stop-color="#f8fbff" />
      <stop offset="100%" stop-color="#e8f0ff" />
    </linearGradient>
    <linearGradient id="sunset" x1="0" y1="0" x2="1" y2="1">
      <stop offset="0%" stop-color="#ffd166" stop-opacity="0.7" />
      <stop offset="100%" stop-color="#ff9f1c" stop-opacity="0.55" />
    </linearGradient>
    <pattern id="laneMarks" x="0" y="0" width="40" height="20" patternUnits="userSpaceOnUse">
      <rect x="0" y="8" width="16" height="4" fill="#ffffff" opacity="0.65" />
    </pattern>
    <g id="car">
      <rect x="-26" y="-10" width="52" height="20" rx="6" ry="6" fill="#3861fb" opacity="0.85" />
      <rect x="-18" y="-14" width="36" height="10" rx="3" ry="3" fill="#233a72" opacity="0.75" />
      <circle cx="-16" cy="12" r="6" fill="#1f2937" />
      <circle cx="16" cy="12" r="6" fill="#1f2937" />
      <circle cx="-16" cy="12" r="3" fill="#e5e7eb" />
      <circle cx="16" cy="12" r="3" fill="#e5e7eb" />
    </g>
  </defs>
  <rect width="1600" height="900" fill="url(#sky)" />
  <rect width="1600" height="900" fill="url(#sunset)" opacity="0.35" />
  <g transform="translate(0, 150)">
    <polygon points="-200,750 800,0 1800,750" fill="#edf2f7" />
    <polygon points="-220,750 800,40 1820,750" fill="#dce6f5" opacity="0.8" />
    <polygon points="-260,750 820,120 1850,750" fill="#c7d5f1" opacity="0.6" />
  </g>
  <g transform="translate(0, 150)">
    <polygon points="-200,750 800,160 1800,750" fill="#2f4057" />
    <polygon points="-120,750 800,210 1720,750" fill="#354a64" opacity="0.9" />
    <polygon points="-40,750 800,260 1640,750" fill="#3c5674" opacity="0.8" />
    <polygon points="-260,750 800,120 1850,750" fill="url(#laneMarks)" opacity="0.75" />
  </g>
  <g transform="translate(0, 180)">
    <use href="#car" x="520" y="480" />
    <use href="#car" x="680" y="420" />
    <use href="#car" x="860" y="480" />
    <use href="#car" x="1040" y="430" />
    <use href="#car" x="1220" y="500" />
    <use href="#car" x="1400" y="450" />
    <use href="#car" x="980" y="520" />
    <use href="#car" x="780" y="540" />
  </g>
</svg>
